<?xml version="1.0" encoding="iso-8859-1"?>
<!-- Generator: Adobe Illustrator 19.0.0, SVG Export Plug-In . SVG Version: 6.00 Build 0)  -->
<svg version="1.1" id="Layer_1" xmlns="http://www.w3.org/2000/svg" xmlns:xlink="http://www.w3.org/1999/xlink" x="0px" y="0px"
	 viewBox="0 0 512 512" style="enable-background:new 0 0 512 512;" xml:space="preserve">
<polygon style="fill:#D5681E;" points="296.88,435.569 281.204,435.569 270.753,465.946 281.204,496.324 296.88,496.324 "/>
<rect x="265.526" y="435.573" style="fill:#FF9933;" width="15.676" height="60.751"/>
<polygon style="fill:#983300;" points="447.817,480.647 281.204,480.647 260.302,496.324 281.204,512 447.817,512 "/>
<rect x="114.594" y="480.647" style="fill:#D5681E;" width="166.619" height="31.353"/>
<path style="fill:#983300;" d="M422.988,320.035l-22.169,22.169l24.103,24.104c-39.892,34.666-90.351,53.585-143.719,53.585
	c-60.509,0-115.378-24.614-155.119-64.355l-22.243,0.628v21.615l0,0c47.375,47.375,110.364,73.465,177.361,73.465
	s129.985-26.091,177.36-73.466l11.084-11.084L422.988,320.035z"/>
<path style="fill:#D5681E;" d="M61.731,200.419c0-53.368,18.919-103.827,53.584-143.719l24.104,24.104l22.169-22.169l-46.66-46.66
	l-11.085,11.084c-47.375,47.374-73.466,110.363-73.466,177.36s26.091,129.986,73.466,177.361l22.243-22.243
	C86.345,315.797,61.731,260.929,61.731,200.419z"/>
<path style="fill:#63C1FF;" d="M411.904,69.72c-36.034-36.034-83.367-54.051-130.7-54.051L260.302,200.42l20.902,184.751
	c47.333,0,94.665-18.016,130.7-54.051C483.971,259.052,483.971,141.787,411.904,69.72z"/>
<path style="fill:#B7DBFB;" d="M150.504,69.72c-72.068,72.068-72.067,189.331,0,261.399c36.034,36.034,83.367,54.051,130.7,54.051
	V15.669C233.871,15.669,186.538,33.685,150.504,69.72z"/>
<path style="fill:#003DA8;" d="M422.988,58.635C383.898,19.544,332.551,0,281.204,0l-10.451,200.419l10.451,200.427l0,0
	c53.612,0,103.97-20.829,141.784-58.642C501.168,264.023,501.168,136.815,422.988,58.635z M431.958,123.677
	c9.787,19.26,15.658,40.012,17.6,61.066h-58.337c-1.12-21.4-4.528-41.897-10.003-61.066H431.958z M400.82,80.804
	c3.712,3.712,7.203,7.561,10.497,11.52h-41.405c-8.486-19.175-19.297-36.463-32.139-51.307
	C360.809,49.153,382.426,62.412,400.82,80.804z M296.88,44.673c15.248,12.56,28.135,28.743,38.234,47.652H296.88L296.88,44.673
	L296.88,44.673z M296.88,123.677h51.576c6.205,18.813,10.093,39.361,11.358,61.066H296.88L296.88,123.677L296.88,123.677z
	 M296.88,216.095h62.934c-1.265,21.704-5.152,42.253-11.358,61.066H296.88L296.88,216.095L296.88,216.095z M296.88,356.166v-47.651
	h38.234C325.016,327.422,312.129,343.606,296.88,356.166z M400.82,320.035c-18.104,18.103-39.62,31.584-63.114,39.862
	c12.871-14.86,23.705-32.175,32.206-51.383h41.405C408.022,312.474,404.531,316.323,400.82,320.035z M431.958,277.161h-50.74
	c5.474-19.169,8.882-39.666,10.003-61.066h58.337C447.616,237.15,441.745,257.902,431.958,277.161z"/>
<path style="fill:#2F91ED;" d="M139.42,58.635c-78.18,78.18-78.18,205.388,0.001,283.568
	c37.817,37.817,88.169,58.642,141.784,58.643V0C229.856,0,178.509,19.545,139.42,58.635z M161.588,80.804
	c18.4-18.4,40.015-31.659,63.052-39.792c-12.844,14.844-23.656,32.134-32.143,51.312h-41.406
	C154.385,88.365,157.877,84.516,161.588,80.804z M130.45,123.677h50.74c-5.474,19.169-8.882,39.666-10.003,61.066h-58.338
	C114.792,163.689,120.662,142.937,130.45,123.677z M130.45,277.161c-9.787-19.26-15.658-40.012-17.6-61.066h58.338
	c1.12,21.4,4.528,41.897,10.003,61.066H130.45z M161.589,320.034c-3.712-3.712-7.203-7.561-10.497-11.52h41.405
	c8.501,19.208,19.334,36.523,32.205,51.383C201.209,351.618,179.693,338.138,161.589,320.034z M265.527,356.166
	c-15.248-12.56-28.135-28.743-38.234-47.651h38.234V356.166z M265.527,277.161h-51.576c-6.205-18.813-10.093-39.361-11.358-61.066
	h62.934L265.527,277.161L265.527,277.161z M265.527,184.743h-62.934c1.265-21.704,5.152-42.253,11.358-61.066h51.576
	L265.527,184.743L265.527,184.743z M265.527,92.324h-38.234c10.099-18.909,22.986-35.091,38.234-47.652V92.324z"/>
<g>
</g>
<g>
</g>
<g>
</g>
<g>
</g>
<g>
</g>
<g>
</g>
<g>
</g>
<g>
</g>
<g>
</g>
<g>
</g>
<g>
</g>
<g>
</g>
<g>
</g>
<g>
</g>
<g>
</g>
</svg>
